<svg xmlns="http://www.w3.org/2000/svg" width="16" height="16" viewBox="0 0 16 16"><g><g><g><path fill="#34373b" d="M3.907 12.571a.432.432 0 0 1-.475-.475l.225-2.039 4.847-4.846a.219.219 0 0 1 .307.003l1.982 1.982a.218.218 0 0 1 0 .304l-4.847 4.846zm7.286-5.782L9.21 4.807a.218.218 0 0 1 0-.303l.825-.825a.854.854 0 0 1 1.21 0l1.075 1.075a.86.86 0 0 1 0 1.21l-.825.825a.218.218 0 0 1-.303 0zM14.286 16c.946 0 1.714-.768 1.714-1.714V1.714C16 .768 15.232 0 14.286 0H1.714C.768 0 0 .768 0 1.714v12.572C0 15.232.768 16 1.714 16z"/></g></g></g></svg>