<svg xmlns="http://www.w3.org/2000/svg" width="32" height="32" viewBox="0 0 32 32"><g><g clip-path="url(#clip-9B529F68-7E54-41DE-88A5-E3B1F2963E44)"><path fill="#ff4242" d="M5.228 31.534L16 20.76l10.772 10.772a1.598 1.598 0 0 0 2.258 0l2.503-2.503a1.598 1.598 0 0 0 0-2.258L20.76 16 31.532 5.228a1.598 1.598 0 0 0 0-2.258L29.029.467a1.598 1.598 0 0 0-2.258 0L16 11.24 5.227.468a1.598 1.598 0 0 0-2.258 0L.467 2.97a1.598 1.598 0 0 0 0 2.258L11.24 16 .467 26.773a1.598 1.598 0 0 0 0 2.258l2.503 2.503a1.598 1.598 0 0 0 2.258 0z"/></g></g></svg>